<?xml version="1.0" standalone="no"?><!DOCTYPE svg PUBLIC "-//W3C//DTD SVG 1.1//EN" "http://www.w3.org/Graphics/SVG/1.1/DTD/svg11.dtd"><svg t="1544082534491" class="icon" style="" viewBox="0 0 1024 1024" version="1.1" xmlns="http://www.w3.org/2000/svg" p-id="10105" xmlns:xlink="http://www.w3.org/1999/xlink" width="200" height="200"><defs><style type="text/css"></style></defs><path d="M912 404v436.6c0 19.6-7 36.4-20.9 50.4-14 14-30.8 20.9-50.4 20.9H183.5c-19.6 0-36.4-7-50.4-20.9-14.1-14-21-30.8-21-50.4V404c0-4.5 1.6-8.1 4.9-10.7 2.3-2.1 8.2-7.2 17.4-15.4s15.4-13.5 18.5-16.1c3.1-2.5 9.9-8.1 20.3-16.7s20.8-16.9 31.3-24.8c10.4-7.9 24.7-18.8 42.8-32.6 18.1-13.8 39.5-29.8 64-47.8 24.6-18 53.2-38.9 85.9-62.7 1.5-1.2 9.3-7.1 23.5-17.8 14.2-10.7 24.8-18.5 31.9-23.5 7.1-4.9 16.6-10.1 28.5-15.6 11.9-5.5 22.2-8.3 30.8-8.3 8.6 0 18.9 2.7 30.8 8.3 11.9 5.5 21.6 10.8 29 15.9 7.4 5.1 18 12.8 31.7 23.2 13.7 10.4 21.4 16.3 23.2 17.8 32.8 23.8 61.4 44.7 85.9 62.7 24.6 18 45.9 33.9 64 47.8 18.1 13.8 32.4 24.7 42.8 32.6 10.4 7.9 20.8 16.2 31.3 24.8 10.4 8.6 17.2 14.2 20.3 16.7 3.1 2.5 9.3 7.9 18.5 16.1 9.2 8.2 15 13.3 17.4 15.4 3.6 2.6 5.2 6.2 5.2 10.7zM660.3 665.1c78.3-56.8 129.6-94.4 154-112.5 3.3-2.3 5.2-5.4 5.5-9.1 0.5-3.8-0.6-7.2-2.9-10.5l-17-23.2c-2.3-3.3-5.5-5.2-9.4-5.5-3.8-0.5-7.4 0.6-10.7 2.9-68.7 50.3-119.8 87.5-153.1 111.6-1.5 0.9-9.2 6.7-23.2 17.4s-24.6 18.5-31.9 23.5c-7.3 4.9-16.9 10.1-28.8 15.6-11.9 5.5-22.2 8.3-30.8 8.3-8.6 0-18.9-2.7-30.8-8.3-11.9-5.5-21.5-10.7-28.8-15.6-7.3-4.9-17.9-12.8-31.9-23.5s-21.7-16.5-23.2-17.4c-55.4-39.9-106.4-77.1-153.1-111.6-3.3-2.3-6.9-3.4-10.7-2.9s-7 2.3-9.4 5.5l-17 23.2c-2.3 3.3-3.4 6.8-2.9 10.5 0.5 3.8 2.3 6.8 5.5 9.1 24.4 18.1 75.8 55.7 154 112.5 3 2.3 10.4 8.1 22.3 17s21.6 16 29 20.9c7.4 5.1 17 10.9 28.5 17.7 11.5 6.8 23.1 11.6 34.6 14.9 11.5 3.3 22.7 4.9 33.7 4.9s22.3-1.6 33.7-4.9c11.5-3.3 23.2-8.5 35.3-15.4 12-6.9 21.7-12.9 28.8-17.7 7.1-4.8 16.8-11.8 29-21.2 12.4-9.3 19.5-14.7 21.7-16.2z" p-id="10106" fill="#F2E61E"></path></svg>