<?xml version="1.0" standalone="no"?><!DOCTYPE svg PUBLIC "-//W3C//DTD SVG 1.1//EN" "http://www.w3.org/Graphics/SVG/1.1/DTD/svg11.dtd"><svg t="1544086183124" class="icon" style="" viewBox="0 0 1024 1024" version="1.1" xmlns="http://www.w3.org/2000/svg" p-id="13102" xmlns:xlink="http://www.w3.org/1999/xlink" width="200" height="200"><defs><style type="text/css"></style></defs><path d="M512 640C323.413333 640 170.666667 716.373333 170.666667 810.666667L170.666667 896 853.333333 896 853.333333 810.666667C853.333333 716.373333 700.586667 640 512 640M341.333333 384C341.333333 478.293333 417.706667 554.666667 512 554.666667 606.293333 554.666667 682.666667 478.293333 682.666667 384M490.666667 85.333333C477.866667 85.333333 469.333333 94.293333 469.333333 106.666667L469.333333 234.666667 426.666667 234.666667 426.666667 128C426.666667 128 330.666667 164.693333 330.666667 288 330.666667 288 298.666667 293.973333 298.666667 341.333333L725.333333 341.333333C723.2 293.973333 693.333333 288 693.333333 288 693.333333 164.693333 597.333333 128 597.333333 128L597.333333 234.666667 554.666667 234.666667 554.666667 106.666667C554.666667 94.293333 546.56 85.333333 533.333333 85.333333L490.666667 85.333333Z" p-id="13103" fill="#F2E61E"></path></svg>