<?xml version="1.0" standalone="no"?><!DOCTYPE svg PUBLIC "-//W3C//DTD SVG 1.1//EN" "http://www.w3.org/Graphics/SVG/1.1/DTD/svg11.dtd"><svg t="1544083930026" class="icon" style="" viewBox="0 0 1024 1024" version="1.1" xmlns="http://www.w3.org/2000/svg" p-id="12923" xmlns:xlink="http://www.w3.org/1999/xlink" width="200" height="200"><defs><style type="text/css"></style></defs><path d="M512.085333 677.7344c178.807467 0 324.266667-145.4592 324.266667-324.266667s-145.4592-324.266667-324.266667-324.266666-324.266667 145.4592-324.266666 324.266666 145.476267 324.266667 324.266666 324.266667zM1018.146133 954.1632a657.749333 657.749333 0 0 0-37.0176-40.413867c-125.2864-125.2864-291.857067-194.286933-469.0432-194.286933-183.569067 0-360.618667 77.124267-485.7344 211.575467-6.997333 7.543467-13.858133 15.2576-20.497066 23.125333a24.6784 24.6784 0 0 0 18.824533 40.635733h974.6432a24.6784 24.6784 0 0 0 18.824533-40.635733z" fill="#F2E61E" p-id="12924"></path></svg>