<?xml version="1.0" standalone="no"?><!DOCTYPE svg PUBLIC "-//W3C//DTD SVG 1.1//EN" "http://www.w3.org/Graphics/SVG/1.1/DTD/svg11.dtd"><svg t="1544082605839" class="icon" style="" viewBox="0 0 1024 1024" version="1.1" xmlns="http://www.w3.org/2000/svg" p-id="11011" xmlns:xlink="http://www.w3.org/1999/xlink" width="200" height="200"><defs><style type="text/css"></style></defs><path d="M680.228571 714.971429a36.571429 36.571429 0 0 1 0-73.142858 47.725714 47.725714 0 0 0 47.542858-47.542857v-168.228571a120.685714 120.685714 0 0 1 241.371428 0 36.571429 36.571429 0 0 1-73.142857 0 47.542857 47.542857 0 0 0-95.085714 0v168.228571a120.868571 120.868571 0 0 1-120.685715 120.685715z" fill="#ffffff" p-id="11012"></path><path d="M680.228571 984.137143a120.868571 120.868571 0 0 1-120.685714-120.685714V594.285714a36.571429 36.571429 0 0 1 73.142857 0v269.165715a47.542857 47.542857 0 0 0 95.085715 0 36.571429 36.571429 0 0 1 73.142857 0 120.868571 120.868571 0 0 1-120.685715 120.685714z" fill="#ffffff" p-id="11013"></path><path d="M797.988571 863.451429a117.76 117.76 0 1 1-235.52 0V594.285714a33.645714 33.645714 0 1 1 67.291429 0v269.165715a8.228571 8.228571 0 0 0 0 2.011428 44.434286 44.434286 0 0 0 2.56 13.897143 48.457143 48.457143 0 0 0 10.422857 18.285714 49.554286 49.554286 0 0 0 20.48 13.714286 46.994286 46.994286 0 0 0 33.645714 0A50.834286 50.834286 0 0 0 728.685714 877.714286a48.457143 48.457143 0 0 0 2.011429-13.531429v-1.462857a32.731429 32.731429 0 0 1 6.034286-18.285714 33.645714 33.645714 0 0 1 61.257142 18.285714z" fill="#ffffff" p-id="11014"></path><path d="M604.525714 762.514286h25.234286v33.645714h-25.234286a16.822857 16.822857 0 0 1-16.822857-16.822857 16.822857 16.822857 0 0 1 16.822857-16.822857zM604.525714 678.4h25.234286v33.645714h-25.234286a16.822857 16.822857 0 0 1-16.822857-16.822857 16.822857 16.822857 0 0 1 16.822857-16.822857zM778.24 868.022857a18.285714 18.285714 0 0 1 0 4.571429 17.005714 17.005714 0 0 1-20.662857 12.068571L728.685714 877.714286a48.457143 48.457143 0 0 0 2.011429-13.531429v-1.462857a32.731429 32.731429 0 0 1 6.034286-18.285714l29.074285 7.862857a16.64 16.64 0 0 1 12.434286 15.725714zM629.942857 865.462857a44.434286 44.434286 0 0 0 2.56 13.897143l-19.565714 5.302857a17.188571 17.188571 0 0 1-20.662857-12.068571 15.542857 15.542857 0 0 1 0-4.205715 17.005714 17.005714 0 0 1 11.154285-16.274285l25.6-6.948572v18.285715a8.228571 8.228571 0 0 0 0.914286 2.011428zM697.051429 910.811429v19.931428a16.822857 16.822857 0 1 1-33.645715 0v-19.931428a46.994286 46.994286 0 0 0 33.645715 0z" fill="#ffffff" p-id="11015"></path><path d="M778.605714 799.085714a121.051429 121.051429 0 0 1-85.394285-35.291428L502.857143 573.44a36.571429 36.571429 0 0 1 51.748571-51.748571l190.354286 190.354285a47.542857 47.542857 0 0 0 67.291429-67.291428 36.571429 36.571429 0 0 1 51.748571-51.748572 120.685714 120.685714 0 0 1-85.394286 206.08z" fill="#ffffff" p-id="11016"></path><path d="M861.805714 595.2a117.577143 117.577143 0 0 1-166.4 166.4L505.051429 571.245714a33.645714 33.645714 0 0 1 47.542857-47.542857l190.354285 190.354286a4.937143 4.937143 0 0 0 1.462858 1.28 47.36 47.36 0 0 0 31.634285 13.165714 46.628571 46.628571 0 0 0 24.137143-4.754286 46.994286 46.994286 0 0 0 23.771429-23.771428 48.457143 48.457143 0 0 0 4.571428-27.245714 50.285714 50.285714 0 0 0-6.034285-18.285715 47.908571 47.908571 0 0 0-8.228572-10.971428h-0.914286a33.28 33.28 0 0 1-8.411428-17.005715 33.645714 33.645714 0 0 1 56.868571-29.622857z" fill="#ffffff" p-id="11017"></path><path d="M653.641143 660.608l17.846857-17.828571 23.771429 23.771428-17.828572 17.865143a16.822857 16.822857 0 0 1-23.789714 0 16.822857 16.822857 0 0 1 0-23.808zM594.285714 600.996571l17.828572-17.828571 23.808 23.771429-17.846857 17.865142a16.822857 16.822857 0 0 1-23.789715 0 16.822857 16.822857 0 0 1 0-23.808zM851.2 612.388571a13.714286 13.714286 0 0 1 2.742857 3.657143 16.822857 16.822857 0 0 1-6.034286 23.954286l-25.417142 14.628571a47.908571 47.908571 0 0 0-8.228572-10.971428h-0.914286a33.28 33.28 0 0 1-8.411428-17.005714l26.148571-14.994286a16.822857 16.822857 0 0 1 20.114286 0.731428zM744.411429 715.337143a50.285714 50.285714 0 0 0 11.702857 8.228571l-10.057143 18.285715a17.188571 17.188571 0 0 1-23.222857 6.217142 22.674286 22.674286 0 0 1-3.291429-2.56 18.285714 18.285714 0 0 1-2.742857-20.48l13.165714-22.857142 12.982857 12.8a4.937143 4.937143 0 0 0 1.462858 0.365714zM823.954286 699.977143l14.08 14.08a16.822857 16.822857 0 1 1-23.771429 23.771428l-14.08-14.08a46.994286 46.994286 0 0 0 23.771429-23.771428z" fill="#ffffff" p-id="11018"></path><path d="M343.771429 714.971429a120.868571 120.868571 0 0 1-120.685715-120.685715v-168.228571a47.542857 47.542857 0 1 0-95.085714 0 36.571429 36.571429 0 0 1-73.142857 0 120.685714 120.685714 0 1 1 241.371428 0v168.228571a47.725714 47.725714 0 0 0 47.542858 47.542857 36.571429 36.571429 0 1 1 0 73.142858z" fill="#ffffff" p-id="11019"></path><path d="M343.771429 984.137143a120.868571 120.868571 0 0 1-120.685715-120.685714 36.571429 36.571429 0 0 1 73.142857 0 47.542857 47.542857 0 1 0 95.085715 0V594.285714a36.571429 36.571429 0 0 1 73.142857 0v269.165715a120.868571 120.868571 0 0 1-120.685714 120.685714z" fill="#ffffff" p-id="11020"></path><path d="M226.011429 863.451429a117.76 117.76 0 1 0 235.52 0V594.285714a33.645714 33.645714 0 0 0-67.291429 0v269.165715a8.228571 8.228571 0 0 1 0 2.011428 44.434286 44.434286 0 0 1-2.56 13.897143 48.457143 48.457143 0 0 1-10.422857 18.285714 49.554286 49.554286 0 0 1-20.48 13.714286 46.994286 46.994286 0 0 1-33.645714 0A50.834286 50.834286 0 0 1 295.314286 877.714286a48.457143 48.457143 0 0 1-2.011429-13.531429v-1.462857a32.731429 32.731429 0 0 0-6.034286-18.285714 33.645714 33.645714 0 0 0-61.257142 18.285714z" fill="#ffffff" p-id="11021"></path><path d="M419.474286 795.977143h-25.234286v-33.645714h25.234286a16.822857 16.822857 0 0 1 16.822857 16.822857 16.822857 16.822857 0 0 1-16.822857 16.822857zM419.474286 711.862857h-25.234286v-33.645714h25.234286a16.822857 16.822857 0 0 1 16.822857 16.822857 16.822857 16.822857 0 0 1-16.822857 16.822857zM245.76 868.022857a18.285714 18.285714 0 0 0 0 4.571429 17.005714 17.005714 0 0 0 20.662857 12.068571l28.891429-6.948571a48.457143 48.457143 0 0 1-2.011429-13.531429v-1.462857a32.731429 32.731429 0 0 0-6.034286-18.285714l-29.074285 7.862857a16.64 16.64 0 0 0-12.434286 15.725714zM394.057143 865.462857a44.434286 44.434286 0 0 1-2.56 13.897143l19.565714 5.302857a17.188571 17.188571 0 0 0 20.662857-12.068571 15.542857 15.542857 0 0 0 0-4.205715 17.005714 17.005714 0 0 0-11.154285-16.274285l-25.6-6.948572v18.285715a8.228571 8.228571 0 0 1-0.914286 2.011428zM326.948571 910.811429v19.931428a16.822857 16.822857 0 0 0 33.645715 0v-19.931428a46.994286 46.994286 0 0 1-33.645715 0z" fill="#ffffff" p-id="11022"></path><path d="M245.394286 799.085714a120.685714 120.685714 0 0 1-85.394286-206.08 36.571429 36.571429 0 0 1 51.748571 51.748572 47.542857 47.542857 0 0 0 67.291429 67.291428l190.354286-190.354285a36.571429 36.571429 0 0 1 51.748571 51.748571L330.788571 763.794286a121.051429 121.051429 0 0 1-85.394285 35.291428z" fill="#ffffff" p-id="11023"></path><path d="M162.194286 595.2a117.577143 117.577143 0 0 0 166.4 166.4l190.354285-190.354286a33.645714 33.645714 0 0 0-47.542857-47.542857L281.051429 714.057143a4.937143 4.937143 0 0 1-1.462858 1.28 47.36 47.36 0 0 1-31.634285 13.165714 46.628571 46.628571 0 0 1-24.137143-4.754286 46.994286 46.994286 0 0 1-23.771429-23.771428 48.457143 48.457143 0 0 1-4.571428-27.245714 50.285714 50.285714 0 0 1 6.034285-18.285715 47.908571 47.908571 0 0 1 8.228572-10.971428 33.28 33.28 0 0 0 8.411428-17.005715 33.645714 33.645714 0 0 0-56.868571-29.622857z" fill="#ffffff" p-id="11024"></path><path d="M346.386286 684.434286l-17.846857-17.846857 23.789714-23.789715 17.846857 17.846857a16.822857 16.822857 0 0 1 0 23.771429 16.822857 16.822857 0 0 1-23.771429 0zM406.070857 624.822857l-17.846857-17.846857 23.789714-23.789714 17.846857 17.846857a16.822857 16.822857 0 0 1 0 23.771428 16.822857 16.822857 0 0 1-23.789714 0zM172.8 612.388571a13.714286 13.714286 0 0 0-2.742857 3.657143 16.822857 16.822857 0 0 0 6.034286 23.954286l25.417142 14.628571a47.908571 47.908571 0 0 1 8.228572-10.971428 33.28 33.28 0 0 0 8.411428-17.005714l-26.148571-14.994286a16.822857 16.822857 0 0 0-19.2 0.731428zM279.588571 715.337143a50.285714 50.285714 0 0 1-11.702857 8.228571l10.057143 18.285715a17.188571 17.188571 0 0 0 23.222857 6.217142 22.674286 22.674286 0 0 0 3.291429-2.56 18.285714 18.285714 0 0 0 2.742857-20.48l-13.165714-22.857142-12.982857 12.8a4.937143 4.937143 0 0 1-1.462858 0.365714zM200.045714 699.977143l-14.08 14.08a16.822857 16.822857 0 1 0 23.771429 23.771428l14.08-14.08a46.994286 46.994286 0 0 1-23.771429-23.771428z" fill="#ffffff" p-id="11025"></path><path d="M793.965714 318.537143A505.234286 505.234286 0 0 0 531.382857 48.822857a68.388571 68.388571 0 0 0-54.857143 0 505.234286 505.234286 0 0 0-263.314285 269.714286 66.742857 66.742857 0 0 0 19.565714 75.885714 422.4 422.4 0 0 0 45.165714 33.28 68.022857 68.022857 0 0 1 32.914286 57.234286v109.714286a67.291429 67.291429 0 0 0 67.291428 67.291428h268.434286A67.291429 67.291429 0 0 0 713.142857 594.285714v-120.502857a67.84 67.84 0 0 1 29.44-54.857143c10.788571-7.314286 21.028571-15.36 30.902857-23.588571a66.925714 66.925714 0 0 0 20.48-76.8z" fill="#ffffff" p-id="11026"></path><path d="M723.748571 360.96A353.28 353.28 0 0 1 692.845714 384a68.388571 68.388571 0 0 0-29.44 54.857143v120.502857a67.291429 67.291429 0 0 1-67.291428 67.291429H326.948571a59.428571 59.428571 0 0 1-8.045714 0A65.828571 65.828571 0 0 1 310.857143 594.285714v-109.714285a68.022857 68.022857 0 0 0-32.182857-57.234286 444.708571 444.708571 0 0 1-44.982857-33.097143 66.925714 66.925714 0 0 1-19.748572-76.068571A506.514286 506.514286 0 0 1 475.428571 48.64a70.765714 70.765714 0 0 1 55.954286 0 461.165714 461.165714 0 0 1 50.102857 25.965714 501.577143 501.577143 0 0 1 162.011429 210.285715 66.925714 66.925714 0 0 1-19.748572 76.068571z" fill="#ffffff" p-id="11027"></path><path d="M723.748571 360.96A353.28 353.28 0 0 1 692.845714 384a68.388571 68.388571 0 0 0-29.44 54.857143v120.502857a67.291429 67.291429 0 0 1-67.291428 67.291429H326.948571a59.428571 59.428571 0 0 1-8.045714 0A65.828571 65.828571 0 0 1 310.857143 594.285714v-109.714285a68.022857 68.022857 0 0 0-32.182857-57.234286 444.708571 444.708571 0 0 1-44.982857-33.097143 66.925714 66.925714 0 0 1-19.748572-76.068571c3.657143-9.142857 7.68-18.285714 12.068572-27.062858a438.857143 438.857143 0 0 1 28.16-50.468571 446.902857 446.902857 0 0 1 36.571428-50.468571 475.428571 475.428571 0 0 1 47.36-50.468572 514.377143 514.377143 0 0 1 138.422857-91.428571 70.765714 70.765714 0 0 1 55.954286 0 461.165714 461.165714 0 0 1 49.005714 26.331428 501.577143 501.577143 0 0 1 162.011429 210.285715 66.925714 66.925714 0 0 1-19.748572 76.068571z" fill="#ffffff" p-id="11028"></path><path d="M411.062857 526.994286m-50.468571 0a50.468571 50.468571 0 1 0 100.937143 0 50.468571 50.468571 0 1 0-100.937143 0Z" fill="#ffffff" p-id="11029"></path><path d="M411.062857 526.994286m-25.234286 0a25.234286 25.234286 0 1 0 50.468572 0 25.234286 25.234286 0 1 0-50.468572 0Z" fill="#ffffff" p-id="11030"></path><path d="M596.114286 526.994286m-50.468572 0a50.468571 50.468571 0 1 0 100.937143 0 50.468571 50.468571 0 1 0-100.937143 0Z" fill="#ffffff" p-id="11031"></path><path d="M596.114286 526.994286m-25.234286 0a25.234286 25.234286 0 1 0 50.468571 0 25.234286 25.234286 0 1 0-50.468571 0Z" fill="#ffffff" p-id="11032"></path><path d="M684.617143 830.171429l0.548571 0.182857h-0.548571v-0.182857zM685.348571 830.171429v0.182857h-0.182857l0.182857-0.182857z" fill="#ffffff" p-id="11033"></path><path d="M495.177143 164.571429a25.234286 25.234286 0 0 1-25.234286 25.234285h-180.114286a475.428571 475.428571 0 0 1 47.36-50.468571h132.754286A25.234286 25.234286 0 0 1 495.177143 164.571429zM495.177143 266.24a25.234286 25.234286 0 0 1-25.234286 25.234286H225.28a438.857143 438.857143 0 0 1 28.16-50.468572H469.942857a25.234286 25.234286 0 0 1 25.234286 25.234286z" fill="#ffffff" p-id="11034"></path></svg>